HIERARCHY
ROOT Hips
{
	OFFSET 0.000000 100.481300 0.000000
	CHANNELS 6 Xposition Yposition Zposition Xrotation Yrotation Zrotation
	JOINT Spine
	{
		OFFSET -0.279200 12.230698 -2.892100
		CHANNELS 3 Xrotation Yrotation Zrotation
		JOINT Spine1
		{
			OFFSET -0.325700 14.269203 -3.374200
			CHANNELS 3 Xrotation Yrotation Zrotation
			JOINT Spine2
			{
				OFFSET -0.372300 16.307602 -0.352600
				CHANNELS 3 Xrotation Yrotation Zrotation
				JOINT Neck
				{
					OFFSET -0.418800 17.814194 8.416900
					CHANNELS 3 Xrotation Yrotation Zrotation
					JOINT Head
					{
						OFFSET 0.000000 7.031097 3.806800
						CHANNELS 3 Xrotation Yrotation Zrotation
						JOINT HeadTop_End
						{
							OFFSET 0.000000 24.646606 12.978600
							CHANNELS 3 Xrotation Yrotation Zrotation
							End Site
							{
								OFFSET 0.000000 27.854965 0.000000
							}
						}
					}
				}
				JOINT LeftShoulder
				{
					OFFSET 16.952999 14.495407 -7.737500
					CHANNELS 3 Xrotation Yrotation Zrotation
					JOINT LeftArm
					{
						OFFSET 9.308998 -2.777710 0.208600
						CHANNELS 3 Xrotation Yrotation Zrotation
						JOINT LeftForeArm
						{
							OFFSET 29.972298 0.000000 0.000000
							CHANNELS 3 Xrotation Yrotation Zrotation
							JOINT LeftHand
							{
								OFFSET 26.026505 0.000000 0.000000
								CHANNELS 3 Xrotation Yrotation Zrotation
								JOINT LeftHandThumb1
								{
									OFFSET 12.240501 -7.147949 9.207150
									CHANNELS 3 Xrotation Yrotation Zrotation
									JOINT LeftHandThumb2
									{
										OFFSET 4.138618 -2.389435 2.389433
										CHANNELS 3 Xrotation Yrotation Zrotation
										JOINT LeftHandThumb3
										{
											OFFSET 2.726913 -1.574387 1.574386
											CHANNELS 3 Xrotation Yrotation Zrotation
											JOINT LeftHandThumb4
											{
												OFFSET 3.941010 -2.275345 2.275342
												CHANNELS 3 Xrotation Yrotation Zrotation
												End Site
												{
													OFFSET -0.005798 5.087799 0.009903
												}
											}
										}
									}
								}
								JOINT LeftHandIndex1
								{
									OFFSET 24.424698 -1.985611 5.953459
									CHANNELS 3 Xrotation Yrotation Zrotation
									JOINT LeftHandIndex2
									{
										OFFSET 6.426697 0.000000 0.000000
										CHANNELS 3 Xrotation Yrotation Zrotation
										JOINT LeftHandIndex3
										{
											OFFSET 5.337898 0.000000 0.000000
											CHANNELS 3 Xrotation Yrotation Zrotation
											JOINT LeftHandIndex4
											{
												OFFSET 4.409401 0.000000 0.000000
												CHANNELS 3 Xrotation Yrotation Zrotation
												End Site
												{
													OFFSET 0.000000 4.409363 0.014373
												}
											}
										}
									}
								}
								JOINT LeftHandMiddle1
								{
									OFFSET 23.810104 0.000000 0.000000
									CHANNELS 3 Xrotation Yrotation Zrotation
									JOINT LeftHandMiddle2
									{
										OFFSET 7.176498 0.000000 0.000000
										CHANNELS 3 Xrotation Yrotation Zrotation
										JOINT LeftHandMiddle3
										{
											OFFSET 6.774902 0.000000 0.000000
											CHANNELS 3 Xrotation Yrotation Zrotation
											JOINT LeftHandMiddle4
											{
												OFFSET 5.403328 0.000000 0.000000
												CHANNELS 3 Xrotation Yrotation Zrotation
												End Site
												{
													OFFSET -0.027702 5.403244 0.017414
												}
											}
										}
									}
								}
								JOINT LeftHandRing1
								{
									OFFSET 22.908401 -0.839279 -6.020567
									CHANNELS 3 Xrotation Yrotation Zrotation
									JOINT LeftHandRing2
									{
										OFFSET 6.337502 0.000000 0.000000
										CHANNELS 3 Xrotation Yrotation Zrotation
										JOINT LeftHandRing3
										{
											OFFSET 5.779297 0.000000 0.000000
											CHANNELS 3 Xrotation Yrotation Zrotation
											JOINT LeftHandRing4
											{
												OFFSET 4.965698 0.000000 0.000000
												CHANNELS 3 Xrotation Yrotation Zrotation
												End Site
												{
													OFFSET 0.000000 4.965668 0.016186
												}
											}
										}
									}
								}
								JOINT LeftHandPinky1
								{
									OFFSET 20.037003 -1.530319 -10.950146
									CHANNELS 3 Xrotation Yrotation Zrotation
									JOINT LeftHandPinky2
									{
										OFFSET 5.254700 0.000000 0.000000
										CHANNELS 3 Xrotation Yrotation Zrotation
										JOINT LeftHandPinky3
										{
											OFFSET 4.810204 0.000000 0.000000
											CHANNELS 3 Xrotation Yrotation Zrotation
											JOINT LeftHandPinky4
											{
												OFFSET 3.647202 0.000000 0.000000
												CHANNELS 3 Xrotation Yrotation Zrotation
												End Site
												{
													OFFSET 0.000000 3.647186 0.011889
												}
											}
										}
									}
								}
							}
						}
					}
				}
				JOINT RightShoulder
				{
					OFFSET -15.141001 14.495407 -7.737500
					CHANNELS 3 Xrotation Yrotation Zrotation
					JOINT RightArm
					{
						OFFSET -9.308998 -2.777710 0.208500
						CHANNELS 3 Xrotation Yrotation Zrotation
						JOINT RightForeArm
						{
							OFFSET -29.972300 0.000000 0.000000
							CHANNELS 3 Xrotation Yrotation Zrotation
							JOINT RightHand
							{
								OFFSET -26.026505 0.000000 0.000000
								CHANNELS 3 Xrotation Yrotation Zrotation
								JOINT RightHandThumb1
								{
									OFFSET -12.240601 -7.148026 9.207092
									CHANNELS 3 Xrotation Yrotation Zrotation
									JOINT RightHandThumb2
									{
										OFFSET -4.138618 -2.389435 2.389433
										CHANNELS 3 Xrotation Yrotation Zrotation
										JOINT RightHandThumb3
										{
											OFFSET -2.726974 -1.574417 1.574421
											CHANNELS 3 Xrotation Yrotation Zrotation
											JOINT RightHandThumb4
											{
												OFFSET -3.941010 -2.275345 2.275343
												CHANNELS 3 Xrotation Yrotation Zrotation
												End Site
												{
													OFFSET 0.005814 5.087799 0.009927
												}
											}
										}
									}
								}
								JOINT RightHandIndex1
								{
									OFFSET -24.424698 -1.985657 5.953444
									CHANNELS 3 Xrotation Yrotation Zrotation
									JOINT RightHandIndex2
									{
										OFFSET -6.426697 0.000000 0.000000
										CHANNELS 3 Xrotation Yrotation Zrotation
										JOINT RightHandIndex3
										{
											OFFSET -5.337898 0.000000 0.000000
											CHANNELS 3 Xrotation Yrotation Zrotation
											JOINT RightHandIndex4
											{
												OFFSET -4.409401 0.000000 0.000000
												CHANNELS 3 Xrotation Yrotation Zrotation
												End Site
												{
													OFFSET 0.000000 4.409363 0.014408
												}
											}
										}
									}
								}
								JOINT RightHandMiddle1
								{
									OFFSET -23.810097 0.000000 0.000000
									CHANNELS 3 Xrotation Yrotation Zrotation
									JOINT RightHandMiddle2
									{
										OFFSET -7.176498 0.000000 0.000000
										CHANNELS 3 Xrotation Yrotation Zrotation
										JOINT RightHandMiddle3
										{
											OFFSET -6.774902 0.000000 0.000000
											CHANNELS 3 Xrotation Yrotation Zrotation
											JOINT RightHandMiddle4
											{
												OFFSET -5.403328 0.000000 0.000000
												CHANNELS 3 Xrotation Yrotation Zrotation
												End Site
												{
													OFFSET 0.027702 5.403244 0.017457
												}
											}
										}
									}
								}
								JOINT RightHandRing1
								{
									OFFSET -22.908302 -0.839325 -6.020576
									CHANNELS 3 Xrotation Yrotation Zrotation
									JOINT RightHandRing2
									{
										OFFSET -6.337502 0.000000 0.000000
										CHANNELS 3 Xrotation Yrotation Zrotation
										JOINT RightHandRing3
										{
											OFFSET -5.779297 0.000000 0.000000
											CHANNELS 3 Xrotation Yrotation Zrotation
											JOINT RightHandRing4
											{
												OFFSET -4.965698 0.000000 0.000000
												CHANNELS 3 Xrotation Yrotation Zrotation
												End Site
												{
													OFFSET 0.000000 4.965668 0.016226
												}
											}
										}
									}
								}
								JOINT RightHandPinky1
								{
									OFFSET -20.037003 -1.530334 -10.950259
									CHANNELS 3 Xrotation Yrotation Zrotation
									JOINT RightHandPinky2
									{
										OFFSET -5.254700 0.000000 0.000000
										CHANNELS 3 Xrotation Yrotation Zrotation
										JOINT RightHandPinky3
										{
											OFFSET -4.810204 0.000000 0.000000
											CHANNELS 3 Xrotation Yrotation Zrotation
											JOINT RightHandPinky4
											{
												OFFSET -3.647202 0.000000 0.000000
												CHANNELS 3 Xrotation Yrotation Zrotation
												End Site
												{
													OFFSET 0.000000 3.647186 0.011917
												}
											}
										}
									}
								}
							}
						}
					}
				}
			}
		}
	}
	JOINT LeftUpLeg
	{
		OFFSET 15.427100 -6.655098 0.678600
		CHANNELS 3 Xrotation Yrotation Zrotation
		JOINT LeftLeg
		{
			OFFSET 4.081073 -39.591068 13.024000
			CHANNELS 3 Xrotation Yrotation Zrotation
			JOINT LeftFoot
			{
				OFFSET -4.081074 -37.707932 -15.979700
				CHANNELS 3 Xrotation Yrotation Zrotation
				JOINT LeftToeBase
				{
					OFFSET 5.346399 -15.068900 20.645000
					CHANNELS 3 Xrotation Yrotation Zrotation
					JOINT LeftToe_End
					{
						OFFSET 2.754700 0.931300 11.300900
						CHANNELS 3 Xrotation Yrotation Zrotation
						End Site
						{
							OFFSET 0.000000 11.669021 0.000000
						}
					}
				}
			}
		}
	}
	JOINT RightUpLeg
	{
		OFFSET -15.569500 -6.655098 0.678600
		CHANNELS 3 Xrotation Yrotation Zrotation
		JOINT RightLeg
		{
			OFFSET -4.081825 -39.591045 13.023800
			CHANNELS 3 Xrotation Yrotation Zrotation
			JOINT RightFoot
			{
				OFFSET 4.081824 -37.707954 -15.979600
				CHANNELS 3 Xrotation Yrotation Zrotation
				JOINT RightToeBase
				{
					OFFSET -5.346400 -15.068900 20.645000
					CHANNELS 3 Xrotation Yrotation Zrotation
					JOINT RightToe_End
					{
						OFFSET -2.754700 0.931300 11.300900
						CHANNELS 3 Xrotation Yrotation Zrotation
						End Site
						{
							OFFSET 0.000000 11.669021 0.000000
						}
					}
				}
			}
		}
	}
}
MOTION
Frames: 5
Frame Time: 0.033333
-0.353507 81.974915 -154.911682 -7.503232 -0.389929 -1.272253 20.062362 -1.088433 -0.882317 -0.087366 -0.145277 0.253792 -0.085095 -0.134962 0.259176 2.089743 0.129612 2.588754 -18.542792 1.412578 3.906258 -0.000000 0.000000 -0.000000 -0.395944 7.296164 0.134859 -2.870771 -31.743465 -66.928013 0.000003 -14.654362 0.000000 -16.728050 1.608820 5.602443 -5.517879 -3.080141 4.905590 15.226145 38.637489 -7.525362 0.969782 5.953560 1.780753 -0.000001 -0.000001 -0.000000 -1.998093 -2.334867 -26.959074 0.315490 2.064230 -17.377548 -0.000000 0.000000 -0.000001 -0.000002 0.000000 -0.000000 0.645354 2.903718 -26.604890 0.707300 3.044637 -26.151305 -0.000002 0.000363 -0.003108 0.000000 -0.000000 -0.000000 1.712034 4.966031 -27.546418 0.539371 2.676081 -22.787106 0.015763 0.466595 -3.869378 0.000000 -0.000000 -0.000001 -0.421851 1.253314 -30.702680 0.195644 -2.409627 -14.275324 0.000003 -0.000000 0.000003 -0.000001 -0.000000 0.000001 0.250567 -4.600053 5.366254 -9.790634 23.831476 68.463644 -0.000001 9.746329 0.000022 2.912794 7.743463 2.279929 -6.179342 -19.389075 7.341241 7.325830 -16.942105 0.054676 -1.727235 1.840931 -2.397104 -0.000000 0.000002 0.000000 -4.264986 4.300082 34.331123 0.475331 -2.531163 21.268359 0.003330 -0.215632 1.769716 -0.000002 0.000001 0.000001 0.095858 -1.901504 27.599229 1.006439 -3.608281 31.161065 0.052802 -0.858036 7.058933 0.000002 -0.000000 -0.000000 2.550025 -6.663745 26.812635 0.660552 -2.962820 25.131654 0.056818 -0.887302 7.301401 -0.000002 -0.000002 -0.000002 -0.509413 -1.210539 32.326274 0.588278 -2.803788 23.694905 0.073719 -1.011926 8.333687 0.000001 -0.000001 -0.000001 -13.156467 11.696383 13.128185 46.475421 -5.522354 1.025994 -26.730992 1.897343 -5.489053 -0.192740 0.000006 0.000002 -0.000000 -0.000001 0.000000 -10.116367 -9.130129 -13.364669 43.173848 1.819708 -4.720577 -24.611183 -5.312369 14.711550 -0.696497 -0.000000 -0.000001 0.000000 -0.000000 -0.000000 
-0.474876 82.493561 -154.749908 -7.535095 -0.712341 -1.437422 19.897255 -1.103731 -0.827741 -0.134302 -0.139547 0.114303 -0.132792 -0.135125 0.119843 2.193739 0.085665 2.627016 -18.276990 1.113485 4.112410 -0.000000 0.000000 -0.000000 -0.398601 7.509041 0.178998 -3.066616 -30.442273 -66.992326 -0.000001 -14.703333 0.000009 -19.108136 1.097624 9.761793 -5.885343 -3.616175 4.754028 15.227608 38.645183 -7.530242 1.215736 6.835162 1.568603 -0.000000 -0.000000 -0.000002 -2.134536 -2.609250 -27.108503 0.309359 2.044543 -17.206478 -0.000001 -0.000001 -0.000000 -0.000001 0.000000 -0.000000 0.445906 2.528067 -26.706975 0.679208 2.986811 -25.617246 0.000001 0.000185 -0.001496 -0.000001 0.000000 0.000003 1.579758 4.730302 -27.370663 0.513141 2.612816 -22.218486 0.013837 0.437202 -3.625220 -0.000000 0.000000 0.000000 -0.315156 1.388375 -30.536242 0.194903 -2.412573 -14.250210 0.000001 0.000001 0.000001 -0.000002 0.000001 0.000001 0.248250 -4.502584 5.327775 -9.417445 24.066496 69.316960 -0.000001 9.696709 0.000008 3.200143 7.186334 3.022787 -6.631596 -19.073892 7.494132 7.325823 -16.942083 0.054676 -1.561057 1.402504 -2.424191 -0.000001 -0.000000 0.000002 -4.382224 4.504976 34.284701 0.464775 -2.503910 21.028131 0.003057 -0.206392 1.693814 0.000001 0.000000 -0.000001 0.107047 -1.850936 26.654555 0.970030 -3.547492 30.577640 0.045770 -0.838342 6.891193 -0.000000 0.000002 0.000003 2.571700 -6.773161 26.419897 0.641584 -2.922106 24.762224 0.053777 -0.875324 7.200660 -0.000003 0.000001 -0.000000 -0.656899 -0.984887 32.312877 0.575805 -2.775220 23.438544 0.069837 -0.985037 8.110758 -0.000001 -0.000001 0.000002 -12.373248 11.973585 13.359101 45.366892 -5.528276 1.145664 -26.407719 2.049117 -5.835234 -0.673105 0.000003 0.000000 -0.000000 -0.000000 -0.000000 -9.872106 -9.392370 -12.678588 42.812701 1.771127 -4.586548 -24.492903 -5.294045 12.796624 -1.318815 -0.000000 -0.000002 -0.000000 0.000002 -0.000000 
-0.858815 83.848862 -154.442993 -7.435536 -0.959941 -1.674449 19.552813 -1.139938 -0.707614 -0.159575 -0.143632 0.010760 -0.158732 -0.142896 0.016474 2.248588 0.054124 2.710835 -18.041383 1.041863 4.067458 -0.000001 -0.000000 0.000000 -0.423158 7.800166 0.426133 -2.474248 -30.244843 -67.041496 -0.000003 -15.108235 -0.000034 -21.267223 -0.408544 10.123145 -6.040466 -3.696730 4.357633 14.990981 38.266941 -7.366047 1.178548 6.860359 1.535958 -0.000000 -0.000000 0.000002 -2.129489 -2.582078 -27.203766 0.305022 2.030488 -17.084450 0.000000 0.000001 -0.000002 0.000001 0.000000 -0.000001 0.261829 2.159680 -26.575913 0.655877 2.937720 -25.165794 -0.000003 0.000056 -0.000419 0.000000 0.000000 0.000003 1.443393 4.494149 -26.915101 0.491747 2.559879 -21.744394 0.012188 0.410381 -3.402635 0.000000 0.000000 -0.000000 -0.156194 1.607026 -30.046077 0.193036 -2.419906 -14.187543 0.000001 0.000002 0.000003 -0.000000 0.000001 -0.000002 0.277278 -4.411169 5.756498 -8.192190 24.855987 69.369881 -0.000004 10.194028 0.000017 2.592793 6.925147 5.319197 -6.962416 -18.835701 7.400456 7.325812 -16.942057 0.054658 -1.571582 1.505971 -2.471535 -0.000002 0.000002 -0.000001 -4.474906 5.020423 33.207557 0.457746 -2.485571 20.866694 0.003070 -0.206913 1.698080 -0.000002 0.000001 -0.000000 0.171495 -1.918459 24.961946 0.944512 -3.504042 30.162822 0.042750 -0.843133 6.926923 -0.000001 0.000000 -0.000002 2.668268 -7.016083 26.215180 0.633609 -2.904757 24.605162 0.052177 -0.862441 7.094168 -0.000003 -0.000001 -0.000001 -0.710176 -0.956763 32.640736 0.569876 -2.761520 23.315778 0.066076 -0.958262 7.888705 -0.000001 0.000000 0.000001 -11.017344 12.691477 13.731187 42.503154 -5.799489 1.336647 -25.128078 2.080217 -6.352074 -1.733216 -0.000001 0.000000 -0.000000 0.000001 -0.000000 -9.571399 -10.009359 -11.342225 41.883878 0.594959 -4.950299 -23.487772 -3.977565 10.013657 -4.004213 0.000000 -0.000002 -0.000000 0.000000 0.000000 
-1.452465 85.720596 -154.087997 -7.069507 -1.058305 -1.807391 19.045731 -1.318064 -0.467930 -0.192287 -0.173134 -0.088456 -0.192039 -0.175387 -0.081925 2.315251 0.042086 2.847834 -17.898868 1.241541 3.765835 -0.000000 0.000000 -0.000000 -0.445653 7.583065 1.112975 -1.497410 -30.522049 -67.437791 -0.000001 -15.791058 0.000008 -22.376466 -2.061837 7.414719 -5.875978 -3.355557 4.137331 14.780598 37.917607 -7.214642 1.008716 6.371401 1.635093 0.000001 -0.000000 -0.000001 -2.102156 -2.548870 -27.135372 0.304506 2.028817 -17.069993 -0.000002 0.000000 -0.000002 -0.000001 0.000000 -0.000000 0.173243 1.966663 -26.312201 0.640870 2.905610 -24.871335 0.000000 0.000001 0.000002 0.000001 0.000002 0.000005 1.374067 4.378715 -26.481142 0.480330 2.531116 -21.487492 0.011197 0.393286 -3.260721 0.000001 0.000000 0.000002 -0.094585 1.700051 -29.503091 0.192196 -2.423226 -14.159261 -0.000005 -0.000001 -0.000008 -0.000001 0.000001 0.000001 0.328183 -4.371386 6.628285 -6.280207 25.906600 68.685701 -0.000000 11.057217 -0.000029 1.277341 7.090781 7.850535 -6.775231 -18.929186 6.803290 7.325817 -16.942066 0.054668 -1.528670 1.378200 -2.468045 -0.000001 -0.000000 0.000001 -4.261726 5.007735 32.251306 0.454262 -2.476406 20.786101 0.003322 -0.215243 1.766536 0.000001 0.000002 0.000001 0.240835 -2.060305 24.909147 0.935144 -3.487904 30.009170 0.038486 -0.826098 6.783771 0.000000 0.000001 0.000002 2.667829 -6.992003 26.480623 0.641651 -2.922241 24.763430 0.052772 -0.856724 7.048260 0.000000 0.000000 -0.000002 -0.892515 -0.697552 32.633418 0.570311 -2.762518 23.324725 0.064271 -0.945186 7.780455 0.000001 -0.000000 -0.000001 -9.956613 13.381628 13.963401 39.206611 -5.899135 1.785501 -22.528134 2.019716 -7.026949 -3.645481 0.000000 0.000004 -0.000000 -0.000000 0.000000 -9.967795 -10.144926 -10.863237 40.435037 1.363693 -4.452491 -18.689498 -2.985038 10.221734 -6.151951 0.000002 0.000000 0.000000 -0.000001 0.000000 
-2.223083 87.607849 -153.758728 -6.532085 -0.742489 -1.737260 18.398680 -1.783025 -0.238555 -0.163535 -0.248644 -0.101278 -0.163557 -0.250651 -0.092791 2.246005 0.057706 2.914697 -17.795732 1.651262 3.258431 0.000000 -0.000000 0.000000 -0.422854 7.445998 1.191101 -0.143890 -31.724986 -67.043429 0.000007 -16.600239 0.000002 -23.084301 -2.664148 3.282562 -5.704013 -3.028498 3.893318 14.743108 37.849708 -7.184132 0.920042 6.037405 1.717584 -0.000001 -0.000000 0.000001 -2.032130 -2.422330 -27.029299 0.304575 2.029030 -17.071785 0.000001 -0.000001 -0.000003 -0.000002 -0.000001 -0.000003 0.182259 1.986042 -26.265743 0.636649 2.896498 -24.787945 -0.000003 0.000000 0.000005 -0.000002 0.000000 0.000001 1.364460 4.366621 -26.364660 0.478588 2.526671 -21.447909 0.010875 0.387693 -3.214312 0.000001 0.000000 0.000000 -0.143367 1.632344 -29.193154 0.191997 -2.424037 -14.152325 -0.000001 -0.000000 0.000001 -0.000001 0.000001 0.000000 0.349972 -4.666360 7.318949 -4.460562 26.904819 68.029149 -0.000006 12.076446 0.000016 -0.150196 7.006910 9.852327 -6.350315 -19.269483 6.617204 7.325820 -16.942067 0.054675 -1.309995 0.744444 -2.470079 -0.000002 0.000003 -0.000001 -4.118259 4.464691 33.126725 0.462189 -2.497176 20.968800 0.003252 -0.213007 1.748114 0.000002 -0.000001 -0.000001 0.258608 -2.105302 26.036644 0.969800 -3.547111 30.573959 0.035226 -0.808786 6.639472 -0.000002 0.000001 0.000002 2.641086 -6.882888 26.884413 0.660137 -2.961931 25.123568 0.054456 -0.858049 7.060924 0.000000 -0.000001 -0.000002 -1.028806 -0.478408 32.512015 0.574779 -2.772852 23.417286 0.064265 -0.945142 7.780092 0.000001 -0.000003 -0.000001 -9.923229 13.620821 14.182095 36.677713 -6.262481 2.348476 -18.409356 1.943383 -8.132364 -6.423082 0.000001 -0.000000 -0.000000 -0.000000 0.000000 -10.657496 -10.356946 -10.304658 38.816832 3.584776 -3.859208 -13.369131 -2.034606 10.429687 -7.368461 -0.014498 0.648263 -0.000000 0.000001 -0.000000 
